<svg width="90" height="68" viewBox="0 0 90 68" fill="none" xmlns="http://www.w3.org/2000/svg">
<path fill-rule="evenodd" clip-rule="evenodd" d="M1.80809 39.1226C1.34264 37.9886 0.0879221 34.7642 1.29712 30.8043C2.04406 28.3998 3.4375 26.5835 4.72859 25.1307C13.5275 15.3876 30.6602 8.7565 37.8736 5.9518C39.3766 5.37752 42.7385 4.12093 47.2856 2.87896C50.3536 2.05019 53.4799 1.36066 56.6948 0.950203C59.6898 0.564556 62.6625 0.420236 65.699 0.675952C70.0329 1.04421 73.8339 2.24685 77.0494 4.40541C78.7271 5.53336 79.7692 6.57465 80.361 7.18408C80.7557 7.59706 81.4044 8.28556 82.1719 9.3729C83.7621 11.5464 84.6598 13.5542 85.2126 14.9071C86.2611 17.5137 86.9528 20.1883 87.4246 22.8876C88.1162 26.8266 88.3396 30.7757 88.3155 34.7502C88.2884 38.5843 87.9859 42.4242 87.1317 46.236C86.5539 48.8174 85.7545 51.3435 84.5131 53.8188C83.6683 55.523 82.6609 57.351 80.6113 59.4022C78.5887 61.4328 76.3586 62.7854 74.8062 63.6216C74.397 63.8111 73.878 64.023 73.3316 64.2355C73.3316 64.2355 72.4297 64.576 71.4989 64.857C61.7276 67.8773 43.2446 63.0572 43.2446 63.0572C40.7782 62.4078 24.5369 58.0411 10.3286 48.3119C6.77564 45.8395 3.4378 43.1216 1.80809 39.1226Z" fill="#25252B"/>
<path d="M66.9824 41.5053H66.6751C65.6471 41.5682 64.6191 41.3271 63.75 40.8448C63.0717 40.4359 62.5948 39.8173 62.4465 39.1148C62.4041 38.7898 62.3723 38.4647 62.3405 38.1397C62.2557 37.2066 62.2451 36.2629 62.2875 35.3298C62.3299 34.3862 62.2875 31.3875 61.906 22.2029C59.5002 22.2553 57.0945 22.3077 54.6781 22.3602C54.8477 28.2421 54.6675 32.2263 54.3602 35.1201C54.2542 36.0637 54.2012 38.4962 54.9749 41.3585C55.2822 42.4804 55.8863 43.5289 56.7447 44.4096C57.7409 45.4057 58.9703 46.192 60.3587 46.7372C62.4253 47.3873 64.6297 47.6808 66.8234 47.597C68.7947 47.6704 70.7553 47.3978 72.5994 46.8001C74.0195 46.3388 75.2807 45.5839 76.2981 44.6088C77.2413 43.6023 77.8984 42.4175 78.2269 41.1593C78.6084 39.0938 78.7674 37.0074 78.6932 34.9209V31.073C78.6826 31.6811 78.3753 41.3795 66.9824 41.5053Z" fill="url(#paint0_linear)"/>
<path d="M78.7087 31.1175V22.7879V22.4103C78.6137 21.8858 78.1598 21.4871 77.6003 21.4871H73.7788C71.8364 21.4871 70.2529 23.0187 70.1895 24.9385C70.1895 24.9805 70.179 25.0119 70.179 25.0434C70.179 25.0854 70.179 25.1169 70.1895 25.1483V35.6284C70.274 36.9188 70.1896 38.2091 69.9467 39.4785C69.8517 40.066 69.4717 40.5905 68.87 40.9367C68.0571 41.3563 67.107 41.5661 66.1464 41.5347C70.7702 42.5313 72.4276 41.199 74.2433 40.0765C78.9516 37.2335 78.7087 31.5791 78.7087 31.1175ZM77.442 23.7006H77.4525C77.4525 23.7006 77.4525 23.7006 77.442 23.7006Z" fill="#88D7DE"/>
<path d="M43.3703 21.4871H42.7112H39.448C39.2319 21.4871 39.005 21.4871 38.7889 21.4871C38.6376 21.4871 38.4971 21.4871 38.3458 21.4871C38.1297 21.4871 37.9028 21.4871 37.6867 21.4871C37.3626 21.572 36.725 21.816 36.0767 22.6328C35.4392 23.4284 35.1043 24.3831 34.953 24.8816V24.8922C33.8833 28.6262 32.1976 34.5136 30.9658 38.8416C31.9275 42.1619 33.9049 44.7502 36.3577 45.8216C36.4117 45.7261 36.4549 45.6413 36.4873 45.5564C36.6602 45.6519 36.8331 45.7367 37.0168 45.8216C37.114 45.6519 37.1789 45.4928 37.2221 45.3973C37.4058 44.9942 37.5246 44.6335 37.6003 44.3789V44.3683C39.6749 37.1019 41.7495 29.8461 43.8241 22.5797C43.8349 22.5373 43.8457 22.4949 43.8674 22.4524C43.8782 22.3888 43.889 22.3145 43.889 22.2403C43.8998 21.816 43.6621 21.4871 43.3703 21.4871Z" fill="url(#paint1_linear)"/>
<path d="M61.3275 21.4871H60.6178H57.5498C57.3097 21.4871 57.0697 21.4871 56.8401 21.4871C56.7253 21.4871 56.6105 21.4871 56.4853 21.4871C56.2453 21.4871 56.0053 21.4871 55.7757 21.4871C55.4626 21.572 54.8469 21.816 54.2208 22.6328C53.6051 23.4284 53.2816 24.3831 53.1355 24.8816V24.8922C52.0919 28.6262 50.464 34.5136 49.2743 38.8416C50.2031 42.1619 52.1128 44.7502 54.4817 45.8216C54.5339 45.7049 54.586 45.6095 54.6278 45.5246C54.8156 45.6307 55.0035 45.7367 55.2017 45.8216C55.2957 45.6519 55.3583 45.4928 55.4 45.3973C55.5774 44.9942 55.6922 44.6335 55.7653 44.3789V44.3683C57.7689 37.1019 59.7725 29.8461 61.7762 22.5797C61.7866 22.5373 61.7971 22.4949 61.8179 22.4524C61.8284 22.3888 61.8388 22.3145 61.8388 22.2403C61.8388 21.816 61.6092 21.4871 61.3275 21.4871Z" fill="url(#paint2_linear)"/>
<path d="M37.4019 45.2722C36.5688 44.5872 35.517 43.5861 34.5381 42.1739C33.7987 41.1095 33.2988 40.1084 32.9447 39.2653L28.925 24.8489C28.7792 24.343 28.4668 23.4051 27.8524 22.6147C27.238 21.8138 26.6235 21.5714 26.3111 21.4871C26.0612 21.4871 25.8113 21.4871 25.5717 21.4871C25.4676 21.4871 25.3635 21.4871 25.2593 21.4871C25.0094 21.4871 24.7595 21.4871 24.5095 21.4871H21.3854H21.375C21.3645 21.4871 21.3645 21.4871 21.3541 21.4871H20.5939H20.5835C20.5731 21.4871 20.5627 21.4871 20.5627 21.4871C20.3752 21.4977 20.2086 21.7084 20.1774 21.9719C20.167 22.0667 20.167 22.1616 20.1878 22.2564C20.1982 22.2775 20.1982 22.3091 20.2086 22.3302V22.3407C22.2289 29.686 24.2492 37.0207 26.2799 44.3659V44.3764C26.3528 44.6294 26.4673 44.9982 26.6444 45.3987C26.7485 45.641 26.988 46.168 27.3629 46.6316C27.7691 47.1269 28.1335 47.3166 28.5189 47.4852C28.8729 47.6433 34.3506 47.6117 34.4547 47.6012H34.486C34.9234 47.559 35.2774 47.4431 35.5378 47.3166C35.9231 47.1375 36.298 46.9583 36.6937 46.463C36.7041 46.4525 36.7041 46.4525 36.7145 46.4419C37.1415 45.9888 37.329 45.5146 37.4019 45.2722Z" fill="white"/>
<path d="M55.3767 45.4197C54.5226 44.7347 53.4443 43.723 52.4408 42.3003C51.6828 41.236 51.1704 40.2138 50.8074 39.3707L46.6865 24.8699C46.537 24.3641 46.2167 23.4156 45.5868 22.6252C44.957 21.8138 44.3271 21.5714 44.0068 21.4871C43.7826 21.4871 43.5477 21.4871 43.3235 21.4871C43.1954 21.4871 43.0673 21.4871 42.9285 21.4871C42.6937 21.4871 42.4588 21.4871 42.2346 21.4871H38.9571H38.9464C38.9357 21.4871 38.9357 21.4871 38.925 21.4871H38.2204H38.2098C38.1991 21.4871 38.1884 21.4871 38.1884 21.4871C37.9962 21.4976 37.8254 21.7084 37.7934 21.9719C37.7827 22.0667 37.7827 22.1616 37.8041 22.2564C37.8147 22.2775 37.8147 22.3091 37.8254 22.3302V22.3407C39.8966 29.6859 41.9677 37.0206 44.0495 44.3659V44.3764C44.1242 44.6293 44.2417 44.9982 44.4232 45.3986C44.5299 45.641 44.7755 46.1679 45.1598 46.6316C45.5762 47.1269 45.9498 47.3166 46.3448 47.4852C46.7078 47.6433 52.3234 47.6117 52.4301 47.6011H52.4622C52.6543 47.5906 52.8251 47.559 52.9746 47.5168C52.9959 47.5168 53.0173 47.5168 53.0173 47.5168H53.0493C53.3269 47.4536 53.9568 47.285 54.5333 46.737C55.0778 46.2417 55.2913 45.6937 55.3767 45.4197Z" fill="white"/>
<defs>
<linearGradient id="paint0_linear" x1="54.296" y1="34.9173" x2="78.6982" y2="34.9173" gradientUnits="userSpaceOnUse">
<stop stop-color="#87D7DD"/>
<stop offset="1" stop-color="#7EB2C2"/>
</linearGradient>
<linearGradient id="paint1_linear" x1="37.0789" y1="33.241" x2="29.0819" y2="47.6934" gradientUnits="userSpaceOnUse">
<stop stop-color="white"/>
<stop offset="1" stop-color="#B3B3B3"/>
</linearGradient>
<linearGradient id="paint2_linear" x1="55.2155" y1="33.2424" x2="47.0605" y2="47.476" gradientUnits="userSpaceOnUse">
<stop stop-color="white"/>
<stop offset="1" stop-color="#B3B3B3"/>
</linearGradient>
</defs>
</svg>
